<svg width="340" height="386" viewBox="0 0 340 386" fill="none" xmlns="http://www.w3.org/2000/svg">
<g clip-path="url(#clip0_2162_2971)">
<path d="M389.861 383.229H279.6V379.88C279.6 376.944 280.767 374.128 282.844 372.051C284.921 369.975 287.739 368.809 290.676 368.809H378.784C381.722 368.809 384.539 369.975 386.616 372.051C388.694 374.128 389.861 376.944 389.861 379.88V383.263V383.229Z" fill="#E6E6E6"/>
<path d="M332.152 369.453L335.503 368.069C300.424 281.035 303.803 171.223 333.426 77.0278C336.948 66.1139 337.202 54.409 334.155 43.3531C331.108 32.2973 324.894 22.3728 316.278 14.8007C299.102 -0.525937 275.37 -4.26938 254.38 5.06502C233.66 14.2749 230.801 30.3212 230.801 46.2914H234.415C234.415 29.2487 238.063 16.2746 255.876 8.36561C275.53 -0.380628 297.766 3.12756 313.91 17.5201C322.001 24.634 327.836 33.9562 330.697 44.3404C333.558 54.7246 333.32 65.7181 330.013 75.9691C300.009 171.257 296.831 281.817 332.152 369.453Z" fill="#E6E6E6"/>
<path d="M233.514 99.5926C240.504 99.5926 246.17 93.9295 246.17 86.9438C246.17 79.958 240.504 74.2949 233.514 74.2949C226.525 74.2949 220.859 79.958 220.859 86.9438C220.859 93.9295 226.525 99.5926 233.514 99.5926Z" fill="#E6E6E6"/>
<path d="M214.027 108.989V85.0264H217.752V108.989C218.82 109.421 219.704 110.21 220.253 111.222C220.802 112.234 220.982 113.406 220.762 114.536C220.542 115.666 219.935 116.684 219.046 117.416C218.157 118.148 217.041 118.549 215.89 118.549C214.738 118.549 213.622 118.148 212.733 117.416C211.844 116.684 211.237 115.666 211.017 114.536C210.797 113.406 210.977 112.234 211.526 111.222C212.075 110.21 212.96 109.421 214.027 108.989Z" fill="#E6E6E6"/>
<path d="M196.006 66.614C196.017 61.1118 198.208 55.8382 202.101 51.9476C205.993 48.057 211.27 45.8664 216.775 45.8555H251.112C253.842 45.8555 256.545 46.3929 259.067 47.4369C261.588 48.481 263.88 50.0113 265.81 51.9406C267.74 53.8698 269.271 56.1601 270.316 58.6807C271.361 61.2013 271.898 63.9029 271.898 66.6313C271.898 69.3596 271.361 72.0612 270.316 74.5818C269.271 77.1024 267.74 79.3927 265.81 81.322C263.88 83.2512 261.588 84.7815 259.067 85.8256C256.545 86.8697 253.842 87.407 251.112 87.407H216.775C211.264 87.3961 205.982 85.2007 202.089 81.3027C198.195 77.4046 196.008 72.1221 196.006 66.614Z" fill="#EDF67D"/>
<path d="M147.622 195.276C151.084 151.185 168.696 130.177 157.411 117.002C146.598 104.381 116.137 106.99 96.5729 119.078C43.8134 151.738 24.4847 281.915 92.3776 345.519C156.899 405.953 279.171 386.6 306.344 337.132C312.685 325.59 317.725 305.358 308.421 293.103C285.381 262.658 201.621 317.778 164.383 283.319C142.333 262.941 145.725 219.473 147.622 195.276Z" fill="#3F3D56"/>
<path d="M187.948 173.369C186.667 173.958 185.667 175.024 185.16 176.34C184.653 177.655 184.68 179.117 185.235 180.413C185.351 180.676 185.49 180.928 185.65 181.167L174.324 196.279L179.973 204.721L193.245 182.343C194.185 181.611 194.857 180.588 195.155 179.434C195.453 178.28 195.361 177.059 194.892 175.963C194.619 175.342 194.227 174.78 193.737 174.311C193.247 173.841 192.669 173.473 192.036 173.227C191.403 172.98 190.728 172.861 190.049 172.876C189.371 172.891 188.701 173.04 188.08 173.313L187.948 173.369Z" fill="#FFB6B6"/>
<path d="M187.941 199.426C188.682 200.118 186.626 200.893 184.479 199.62C183.856 199.247 183.593 199.094 183.524 199.191C183.344 199.433 184.369 201.267 184.092 205.246C183.926 207.633 179.938 212.124 175.445 216.511C169.346 222.434 162.257 228.149 162.257 228.149L159.772 226.163L133.61 205.246L129.207 199.15C129.611 196.744 130.215 194.376 131.014 192.071C132.139 188.88 133.468 185.764 134.995 182.744C135.805 181.104 136.635 179.54 137.438 178.101L151.423 193.503L163.136 206.401C163.136 206.401 166.549 200.907 169.194 199.413C169.531 199.198 169.916 199.067 170.315 199.032C172.987 198.908 173.147 197.447 170.045 194.285C166.944 191.123 170.855 194.078 173.611 193.22C176.366 192.362 173.611 193.22 174.192 191.088C174.774 188.957 182.5 184.681 182.5 184.681L182.825 184.972L188.661 190.12L190.329 191.594C190.329 191.594 188.509 196.596 188.003 197.655C187.498 198.714 187.207 198.762 187.941 199.426Z" fill="#D4E134"/>
<path d="M341.857 296.514L342.141 288.806L312.525 284.038L312.109 295.421L341.857 296.514Z" fill="#FFB6B6"/>
<path d="M336.451 298.839L336.195 286.467L341.477 286.66L350 275.25C350.418 274.686 351.007 274.27 351.678 274.064C352.35 273.858 353.07 273.872 353.734 274.104C354.397 274.335 354.969 274.773 355.366 275.353C355.763 275.933 355.964 276.624 355.939 277.326L355.399 291.988L350.083 294.32L355.268 295.497L355.067 301.032L336.451 298.839Z" fill="#2F2E41"/>
<path d="M175.182 299.517L268.98 301.891C268.98 301.891 309.486 304.229 318.991 298.05L329.009 296.791L329.555 282.073C329.555 282.073 323.429 282.122 319.905 280.482C316.381 278.842 318.832 276.828 315.467 278.807C312.103 280.786 312.463 281.014 309.867 280.108C307.271 279.202 188.169 261.059 188.169 261.059L175.182 299.517Z" fill="#2F2E41"/>
<path d="M298.791 293.131L304.246 287.671L285.776 264.048L277.725 272.102L298.791 293.131Z" fill="#FFB6B6"/>
<path d="M293.266 288.384L301.455 279.146L305.194 282.876L319.206 280.302C319.898 280.175 320.613 280.272 321.246 280.579C321.88 280.887 322.398 281.389 322.726 282.012C323.053 282.634 323.173 283.345 323.068 284.041C322.963 284.737 322.638 285.381 322.141 285.879L311.757 296.258L306.274 294.356L309.271 298.749L305.36 302.659L293.266 288.384Z" fill="#2F2E41"/>
<path d="M138.18 248.174L139.149 269.86C140.243 295.365 168.35 310.796 190.136 297.483C190.538 297.241 190.939 296.985 191.348 296.722C191.95 296.327 199.607 294.5 199.357 290.992C199.108 287.484 201.123 285.768 202.909 286.73C204.695 287.692 228.08 254.513 228.08 254.513C228.08 254.513 276.665 278.731 287.382 284.439C287.382 284.439 297.455 268.691 296.728 268.857C296.001 269.023 236.623 227.485 236.623 227.485C236.623 227.485 226.931 217.701 214.955 224.164C214.705 225.112 214.913 225.146 214.913 225.146L175.245 257.405L169.644 246.777L138.18 248.174Z" fill="#2F2E41"/>
<path d="M175.548 221.085C175.474 222.087 175.332 223.083 175.126 224.067C174.831 225.488 174.367 226.868 173.741 228.177C173.741 228.177 173.741 229.637 170.972 234.529C168.203 239.421 171.664 237.297 173.741 240.958C175.818 244.618 173.741 242.916 171.408 245.248C170.738 245.928 170.263 246.775 170.03 247.701C169.798 248.626 169.817 249.598 170.086 250.513C170.086 250.513 140.048 250.513 134.454 248.438C128.86 246.362 127.586 234.529 132.605 233.36C137.625 232.191 131.082 231.035 128.14 228.343C125.198 225.652 131.082 221.251 131.082 221.251C131.082 221.251 128.659 217.065 128.86 203.004C128.89 201.713 129.01 200.425 129.22 199.15C129.624 196.744 130.228 194.376 131.027 192.071C132.147 188.88 133.473 185.765 134.994 182.744C135.804 181.104 136.635 179.54 137.438 178.101C137.562 177.873 137.68 177.658 137.805 177.444C139.321 174.759 140.705 172.565 141.626 171.161C142.318 170.067 142.754 169.452 142.754 169.452L147.843 160.608L164.839 168.566L163.869 181.588L166.805 191.407L168.155 195.926L169.193 199.385L170.799 204.789C170.799 204.789 170.363 204.789 170.889 205.53C173.303 208.741 174.867 212.508 175.437 216.483C175.635 218.009 175.673 219.551 175.548 221.085Z" fill="#E0F01B"/>
<path d="M224.618 222.489L224.3 222.385L183.635 209.301L198.616 160.172C199.139 158.457 200.321 157.02 201.904 156.177C203.486 155.333 205.339 155.153 207.055 155.675C207.571 155.831 208.066 156.05 208.529 156.325L234.511 171.672C236.569 172.884 238.135 174.78 238.934 177.03C239.734 179.279 239.717 181.737 238.886 183.975L224.618 222.489Z" fill="#2F2E41"/>
<path d="M224.785 225.617L183.787 212.429L198.775 163.3C199.071 162.32 199.586 161.419 200.281 160.668C200.977 159.916 201.835 159.332 202.79 158.961C203.745 158.591 204.772 158.442 205.793 158.527C206.814 158.612 207.802 158.929 208.682 159.453L235.91 173.043C240.001 175.458 239.904 181.706 237.987 186.833L224.785 225.617Z" fill="#582AFB"/>
<path d="M220.68 229.173C219.74 229.699 218.701 230.026 217.629 230.133C216.557 230.24 215.475 230.125 214.449 229.796L188.246 221.361C186.236 220.704 184.562 219.288 183.583 217.414C182.604 215.541 182.396 213.359 183.005 211.334L196.159 168.254C196.417 167.405 196.841 166.615 197.405 165.93C197.969 165.244 198.663 164.677 199.447 164.26C200.231 163.843 201.089 163.584 201.973 163.499C202.857 163.414 203.749 163.503 204.598 163.763L204.736 163.804L231.895 172.717C233.166 173.134 234.343 173.798 235.358 174.67C236.372 175.542 237.205 176.605 237.809 177.799C238.413 178.993 238.775 180.294 238.876 181.628C238.976 182.962 238.813 184.302 238.395 185.573C238.395 185.663 238.34 185.746 238.305 185.836L224.259 224.973C223.615 226.76 222.343 228.253 220.68 229.173Z" fill="#3F3D56"/>
<path d="M163.856 160.754C174.221 160.754 182.624 152.355 182.624 141.995C182.624 131.635 174.221 123.236 163.856 123.236C153.491 123.236 145.088 131.635 145.088 141.995C145.088 152.355 153.491 160.754 163.856 160.754Z" fill="#FFB6B6"/>
<path d="M100.379 161.038C102.101 164.375 104.923 167.014 108.368 168.511C109.745 169.144 111.193 169.609 112.681 169.895C113.098 168.231 113.768 166.642 114.668 165.182C114.37 166.83 114.37 168.517 114.668 170.165C116.933 170.351 119.212 170.068 121.363 169.334C123.47 168.613 125.38 167.412 126.942 165.826C128.504 164.239 129.675 162.311 130.362 160.194C131.858 155.225 130.245 149.911 130.12 144.722C129.996 139.532 132.453 133.325 137.611 132.682C141.536 132.19 141.072 132.571 143.876 135.346C139.93 139.726 149.546 159.135 154.71 158.277C157.632 157.792 159.778 155.509 160.352 155.557C163.309 162.788 154.42 173.05 161.467 176.42L160.948 175.728C157.258 169.632 168.175 159.336 164.485 153.239C163.454 151.537 162.409 149.537 163.025 147.655C163.641 145.773 166.687 145.289 167.331 146.922C166.285 143.185 169.214 138.792 173.104 138.411C176.566 138.072 176.365 139.054 179.66 139.954C180.085 138.534 180.692 137.176 181.467 135.913C181.203 137.352 181.171 138.823 181.37 140.272C182.559 140.414 183.762 140.158 184.79 139.546C187.836 137.726 187.926 133.014 185.836 130.149C183.745 127.284 180.228 125.873 176.836 124.8C176.836 117.646 157.542 114.22 153.99 120.87C153.63 115.487 147.448 111.875 142.131 112.767C136.815 113.66 132.605 117.95 130.051 122.704C127.496 127.457 126.216 132.772 124.346 137.837C122.477 142.902 119.791 147.939 115.305 150.942C110.819 153.945 104.152 154.215 100.407 150.326C99.5626 151.985 99.1201 153.818 99.1153 155.679C99.1105 157.539 99.5435 159.375 100.379 161.038Z" fill="#2F2E41"/>
<path d="M119.646 246.819C120.037 246.512 120.459 246.247 120.906 246.03C128.092 242.452 150.425 233.18 167.899 233.575C201.502 234.267 244.279 271.376 234.359 296.272C226.785 315.218 189.124 326.026 161.668 317.377C123.094 305.288 107.891 256.188 119.646 246.819Z" fill="#3F3D56"/>
<path d="M-19.8781 383.299C-30.8578 381.223 -40.5776 331.776 -18.9712 307.419C-11.5706 299.074 -2.35625 295.442 9.94576 292.065C80.6424 272.607 134.558 291.152 141.813 295.677C149.068 300.202 161.717 368.249 145.51 377.881C136.393 383.299 118.317 386.011 109.359 379.687C96.2051 370.38 118.303 346.252 108.459 330.005C97.2851 311.571 38.4543 305.357 8.99732 323.68C-22.5088 343.207 42.4003 395.041 -19.8781 383.299Z" fill="#F2F2F2"/>
<path d="M53.5476 299.219H11.5947C1.21038 289.297 -6.16943 279.734 -0.236502 271.797C-0.236502 269.516 0.670107 267.328 2.28389 265.715C3.89767 264.102 6.08643 263.196 8.36866 263.196H56.7667C59.0496 263.196 61.239 264.102 62.8539 265.715C64.4688 267.328 65.377 269.515 65.3788 271.797C67.6426 280.841 63.6065 289.982 53.5476 299.219Z" fill="#CCCCCC"/>
<path d="M46.0139 252.368C45.6192 252.379 45.2305 252.27 44.8993 252.055C44.5682 251.84 44.3103 251.529 44.1601 251.164C44.0098 250.799 43.9742 250.397 44.058 250.011C44.1419 249.626 44.3411 249.275 44.6294 249.005L44.7678 248.472L44.7124 248.348C44.315 247.399 43.646 246.589 42.7893 246.019C41.9326 245.449 40.9266 245.145 39.8976 245.145C38.8686 245.145 37.8625 245.449 37.0058 246.019C36.1492 246.589 35.4801 247.399 35.0827 248.348C33.5112 252.139 31.5035 255.959 31.012 259.945C30.7968 261.716 30.8881 263.511 31.282 265.252C27.5769 257.201 25.6434 248.449 25.6122 239.587C25.6132 237.361 25.7357 235.137 25.9791 232.924C26.1868 231.111 26.4706 229.31 26.8306 227.52C28.8156 217.822 33.0718 208.733 39.2503 200.997C42.2385 199.364 44.6545 196.855 46.1732 193.808C46.7255 192.717 47.115 191.552 47.3293 190.348C46.997 190.397 46.0624 185.256 46.3116 184.944C45.8409 184.252 45.0032 183.872 44.4909 183.18C41.9364 179.72 38.4126 180.322 36.578 185.027C32.6527 187.006 32.6181 190.286 35.0204 193.448C36.5573 195.455 36.7649 198.174 38.108 200.326L37.6926 200.852C35.1752 204.095 32.9839 207.579 31.1505 211.252C31.6022 207.131 31.0659 202.961 29.5859 199.088C28.0906 195.476 25.2868 192.438 22.8153 189.317C19.8454 185.567 13.7601 187.207 13.234 191.954C13.2378 192 13.2378 192.046 13.234 192.092C13.6032 192.3 13.9632 192.53 14.314 192.784C14.6022 192.976 14.8497 193.222 15.0423 193.51C15.2349 193.798 15.3688 194.12 15.4363 194.46C15.5039 194.799 15.5037 195.149 15.4358 195.488C15.368 195.827 15.2338 196.15 15.0409 196.437C14.8364 196.741 14.5716 196.998 14.2632 197.195C13.9547 197.391 13.6091 197.522 13.2478 197.579H13.1509C13.281 198.9 13.5124 200.21 13.8432 201.496C10.6725 213.75 17.5193 218.213 27.2944 218.414C27.509 218.524 27.7167 218.635 27.9382 218.739C26.0802 223.995 24.9166 229.471 24.4768 235.027C24.2264 238.306 24.2426 241.598 24.5253 244.874V244.763C23.8105 241.115 21.8535 237.826 18.9869 235.456C14.7501 231.997 8.76873 230.696 4.19961 227.9C3.52581 227.478 2.7127 227.336 1.93566 227.507C1.15862 227.678 0.479901 228.147 0.0458713 228.814C-0.341145 229.414 -0.500736 230.133 -0.404118 230.841C-0.404118 230.883 -0.404118 230.924 -0.404118 230.966C0.278238 231.241 0.941939 231.559 1.58276 231.921C1.94736 232.128 2.30735 232.359 2.66273 232.613C2.95094 232.804 3.19845 233.051 3.39105 233.339C3.58365 233.626 3.71756 233.949 3.78509 234.288C3.85262 234.628 3.85245 234.977 3.78459 235.317C3.71673 235.656 3.58251 235.979 3.38963 236.266C3.18513 236.569 2.92041 236.827 2.61194 237.023C2.30347 237.22 1.95785 237.351 1.5966 237.408H1.54814H1.43738C2.60556 240.186 4.24499 242.743 6.28341 244.964C8.27028 255.661 16.7785 256.679 25.8891 253.565C26.886 257.906 28.3338 262.131 30.209 266.172H45.6401C45.6955 265.999 45.7439 265.819 45.7924 265.653C44.3658 265.741 42.9338 265.655 41.5279 265.397C42.6702 264.013 43.8125 262.574 44.9894 261.169C45.0158 261.145 45.039 261.117 45.0586 261.086C45.6401 260.394 46.2285 259.654 46.8101 258.941C46.8399 256.738 46.5863 254.541 46.0555 252.402L46.0139 252.368Z" fill="#CCCCCC"/>
<path d="M98.6564 296.97C98.911 297.715 99.3952 298.36 100.04 298.813C100.684 299.265 101.455 299.502 102.242 299.489L117.639 299.094C118.43 299.075 119.194 298.801 119.818 298.314C120.441 297.827 120.891 297.152 121.1 296.389L123.274 273.105C124.047 273.457 124.889 273.632 125.739 273.617C127.228 273.579 128.641 272.952 129.667 271.873C130.694 270.794 131.249 269.352 131.211 267.863C131.174 266.375 130.546 264.963 129.467 263.937C128.387 262.911 126.944 262.356 125.455 262.393C125.117 262.392 124.78 262.429 124.451 262.504C124.09 262.115 123.652 261.805 123.164 261.594C122.677 261.383 122.151 261.276 121.62 261.279L97.9433 261.888C97.7453 261.896 97.5484 261.922 97.3549 261.964C96.8776 262.053 96.4225 262.235 96.0156 262.5C95.6087 262.765 95.2579 263.107 94.9834 263.508C94.7089 263.908 94.516 264.359 94.4157 264.833C94.3154 265.308 94.3096 265.798 94.3988 266.275C94.4297 266.439 94.4713 266.601 94.5234 266.76L98.6564 296.97ZM123.738 271.527L125.289 265.992C125.462 265.35 125.462 264.675 125.289 264.033C125.365 264.033 125.434 263.999 125.51 263.999C126.038 263.986 126.562 264.078 127.054 264.268C127.546 264.459 127.995 264.744 128.377 265.108C128.758 265.472 129.065 265.908 129.278 266.39C129.491 266.872 129.607 267.392 129.619 267.919C129.631 268.446 129.54 268.97 129.349 269.462C129.159 269.953 128.873 270.402 128.509 270.784C128.145 271.165 127.709 271.471 127.227 271.684C126.744 271.897 126.225 272.013 125.697 272.025C125.01 272.047 124.33 271.879 123.731 271.541L123.738 271.527Z" fill="#CCCCCC"/>
<path d="M97.3691 261.965C97.8745 264.844 103.544 266.871 110.363 266.518C116.636 266.235 121.765 264.034 122.7 261.425C122.352 261.321 121.99 261.272 121.627 261.28L97.9576 261.889C97.7596 261.897 97.5626 261.922 97.3691 261.965Z" fill="white"/>
<path d="M210.552 200.257C209.143 200.311 207.81 200.911 206.836 201.93C205.861 202.949 205.322 204.307 205.332 205.716C205.343 206.004 205.376 206.291 205.429 206.574L189.16 216.172L191.126 226.136L211.992 210.574C213.143 210.26 214.157 209.574 214.876 208.622C215.596 207.671 215.979 206.507 215.966 205.315C215.952 204.637 215.805 203.969 215.533 203.347C215.261 202.726 214.869 202.165 214.38 201.695C213.891 201.225 213.314 200.857 212.682 200.61C212.05 200.363 211.376 200.243 210.697 200.257H210.552Z" fill="#FFB6B6"/>
<path d="M197.225 223.146C196.789 222.558 196.602 222.316 196.533 222.385C196.277 222.537 196.533 224.599 194.733 228.184C192.206 233.228 165.76 240.943 165.76 240.943L162.507 234.986L148.149 208.802L143.213 187.815C143.04 187.085 142.956 186.337 142.963 185.587C147.364 182.491 152.038 179.802 156.927 177.554C158.882 178.66 160.371 180.434 161.122 182.55L170.994 210.172L174.933 221.209C174.933 221.209 181.856 216.248 184.39 217.154C186.924 218.06 187.616 216.787 185.975 212.677C184.335 208.567 186.792 212.795 189.665 213.065C192.538 213.334 189.665 213.065 191.05 211.321C192.434 209.577 201.192 208.595 201.192 208.595L201.379 208.982L204.778 215.978L205.754 217.991C205.754 217.991 202.147 221.901 201.275 222.683C200.403 223.465 200.133 223.416 200.583 224.309C201.033 225.201 198.734 225.16 197.225 223.146Z" fill="#EDF67D"/>
</g>
<defs>
<clipPath id="clip0_2162_2971">
<rect width="520" height="385.008" fill="white" transform="translate(-81)"/>
</clipPath>
</defs>
</svg>
