<svg width="340" height="489" viewBox="0 0 340 489" fill="none" xmlns="http://www.w3.org/2000/svg">
<g clip-path="url(#clip0_2162_5587)">
<path d="M124.802 401.353C116.643 392.938 104.833 388.106 92.3599 388.106H91.882C83.6783 388.108 75.621 385.93 68.5329 381.796L67.8198 381.368L68.4117 380.754C71.6261 377.423 74.3104 373.617 76.3706 369.47C74.9094 370.837 73.1654 371.866 71.2623 372.482C69.3593 373.099 67.344 373.289 65.3593 373.039C63.2631 372.789 61.2507 372.067 59.4733 370.928C57.6958 369.788 56.1995 368.26 55.0969 366.458C50.7394 359.392 45.5547 349.328 45.5547 341.72C45.5615 335.261 46.9125 328.875 49.5218 322.968C52.131 317.06 55.9412 311.762 60.7095 307.41C63.728 304.685 66.139 301.353 67.7855 297.633C69.4321 293.913 70.2772 289.888 70.2659 285.819V285.241C70.2601 279.885 70.914 274.549 72.2129 269.353L72.3413 268.825H72.8833C76.3619 268.943 79.8423 268.651 83.2527 267.954C80.0632 267.559 76.9434 266.726 73.9815 265.478L73.3967 265.242L73.5964 264.65C87.1466 256.235 117.813 260.588 135.642 219.855C150.062 186.823 200.968 249.176 200.968 285.22C200.968 288.896 197.331 293.785 200.048 296.19C229.481 322.463 209.177 339.343 202.772 356.316C201.253 360.348 204.548 364.774 204.548 369.163C204.548 369.877 204.548 370.669 204.491 371.433L204.434 372.611L203.457 371.954C201.513 370.684 199.713 369.208 198.087 367.55C199.774 371.437 200.569 375.654 200.414 379.889C200.258 384.125 199.156 388.271 197.188 392.024C194.1 397.849 191.119 402.017 188.317 404.422C179.344 412.113 167.774 416.081 155.974 415.513C144.174 414.945 133.038 409.885 124.845 401.367L124.802 401.353Z" fill="#E6E6E6"/>
<path d="M174.074 489.001C174.274 489.001 174.467 488.929 174.618 488.797C174.769 488.666 174.867 488.485 174.894 488.287C174.894 488.037 178.403 462.999 175.287 429.76C172.434 399.026 163.163 354.76 135.492 318.416C135.426 318.328 135.343 318.254 135.249 318.199C135.154 318.143 135.05 318.106 134.941 318.091C134.832 318.076 134.722 318.082 134.616 318.11C134.51 318.137 134.41 318.186 134.322 318.252C134.235 318.317 134.161 318.399 134.106 318.493C134.05 318.587 134.014 318.691 133.998 318.799C133.983 318.907 133.989 319.017 134.017 319.123C134.044 319.229 134.092 319.328 134.158 319.415C161.594 355.459 170.758 399.397 173.618 429.91C176.713 462.999 173.276 487.837 173.24 488.087C173.224 488.196 173.23 488.307 173.257 488.413C173.284 488.52 173.332 488.62 173.399 488.708C173.465 488.796 173.548 488.869 173.644 488.924C173.739 488.98 173.844 489.015 173.953 489.029L174.074 489.001Z" fill="#3F3D56"/>
<path d="M151.482 369.648C151.657 369.647 151.827 369.591 151.969 369.487C152.11 369.384 152.215 369.239 152.27 369.072C152.324 368.906 152.325 368.726 152.272 368.559C152.219 368.392 152.114 368.246 151.974 368.142C144.089 362.797 135.57 358.455 126.613 355.216C112.621 350.091 91.3401 345.452 69.4102 352.418C69.301 352.447 69.1986 352.497 69.1094 352.567C69.0203 352.636 68.9461 352.723 68.8914 352.822C68.8367 352.921 68.8027 353.03 68.7913 353.142C68.78 353.254 68.7916 353.368 68.8254 353.476C68.8592 353.584 68.9146 353.684 68.9881 353.769C69.0617 353.855 69.1519 353.925 69.2532 353.975C69.3546 354.025 69.465 354.054 69.5778 354.06C69.6906 354.066 69.8034 354.049 69.9095 354.01C91.3687 347.179 112.257 351.747 126.007 356.786C134.822 359.969 143.206 364.237 150.968 369.491C151.118 369.597 151.298 369.652 151.482 369.648Z" fill="#3F3D56"/>
<path d="M189.634 274.548C189.647 274.373 189.604 274.197 189.511 274.048C189.418 273.898 189.28 273.782 189.117 273.715C188.954 273.649 188.774 273.635 188.603 273.677C188.432 273.719 188.279 273.814 188.165 273.949C182.272 281.44 177.332 289.634 173.46 298.345C167.341 311.949 161.179 332.854 166.556 355.223C166.574 355.336 166.615 355.445 166.677 355.542C166.739 355.639 166.821 355.722 166.916 355.786C167.012 355.849 167.119 355.893 167.232 355.913C167.345 355.934 167.461 355.93 167.573 355.904C167.685 355.877 167.79 355.828 167.882 355.759C167.974 355.69 168.05 355.602 168.107 355.502C168.163 355.402 168.198 355.291 168.21 355.177C168.222 355.063 168.21 354.947 168.175 354.837C162.912 332.926 168.974 312.398 174.979 299.037C178.787 290.469 183.645 282.408 189.442 275.041C189.557 274.902 189.625 274.729 189.634 274.548Z" fill="#3F3D56"/>
<path d="M350.397 488.123H284.072L283.787 487.602C282.938 486.06 282.118 484.433 281.348 482.755C274.516 468.109 271.628 451.351 269.074 436.576L267.156 425.442C266.924 424.093 267.1 422.705 267.66 421.457C268.221 420.208 269.141 419.155 270.302 418.432C271.464 417.71 272.814 417.35 274.181 417.4C275.548 417.45 276.869 417.906 277.975 418.711C288.059 426.053 298.148 433.391 308.242 440.723C312.064 443.507 316.429 446.726 320.608 450.209C321.014 448.246 321.435 446.283 321.856 444.342C322.153 443.007 322.841 441.791 323.832 440.849C324.822 439.907 326.07 439.281 327.417 439.052C328.764 438.822 330.149 438.999 331.395 439.56C332.641 440.12 333.693 441.04 334.415 442.201L342.167 454.655C347.837 463.77 352.829 472.756 351.816 482.441C351.827 482.558 351.827 482.675 351.816 482.791C351.61 484.383 351.232 485.948 350.689 487.459L350.397 488.123Z" fill="#F0F0F0"/>
<path d="M319.503 227.028L306.702 179.585C306.153 177.577 304.838 175.865 303.04 174.818C301.241 173.771 299.104 173.474 297.088 173.989C295.053 174.514 293.309 175.825 292.239 177.636C291.169 179.447 290.861 181.609 291.383 183.646C291.419 183.782 291.454 183.918 291.497 184.053L306.31 232.923L314.026 262.993C312.938 263.823 312.12 264.958 311.676 266.253C311.232 267.549 311.182 268.947 311.532 270.271C311.882 271.595 312.616 272.785 313.642 273.691C314.668 274.597 315.94 275.179 317.296 275.361C318.652 275.544 320.032 275.32 321.261 274.718C322.49 274.116 323.513 273.162 324.2 271.978C324.888 270.794 325.209 269.432 325.123 268.066C325.037 266.699 324.548 265.388 323.718 264.299C323.473 263.971 323.196 263.667 322.891 263.393L319.503 227.028Z" fill="#A0616A"/>
<path d="M211.737 216.806L250.654 186.829C252.296 185.553 253.372 183.682 253.651 181.62C253.93 179.558 253.389 177.469 252.145 175.802C250.884 174.119 249.006 173.006 246.926 172.707C244.845 172.409 242.731 172.949 241.048 174.21L240.72 174.467L201.253 206.842L176.442 225.543C175.259 224.854 173.899 224.532 172.534 224.618C171.168 224.703 169.858 225.192 168.77 226.022C167.682 226.852 166.865 227.987 166.421 229.282C165.977 230.577 165.927 231.975 166.277 233.299C166.627 234.623 167.362 235.813 168.388 236.719C169.414 237.625 170.685 238.206 172.041 238.389C173.397 238.572 174.777 238.348 176.006 237.746C177.235 237.144 178.258 236.191 178.945 235.007C179.15 234.654 179.324 234.283 179.466 233.9L211.737 216.806Z" fill="#A0616A"/>
<path d="M243.423 223.694L241.711 262.037L295.569 250.317C290.984 234.914 287.867 232.288 291.29 221.567L243.423 223.694Z" fill="#A0616A"/>
<path d="M276.569 153.411H258.626L250.917 166.608L247.244 166.408C245.509 166.312 243.773 166.559 242.133 167.134C240.494 167.71 238.984 168.603 237.69 169.763C236.396 170.923 235.343 172.327 234.591 173.895C233.839 175.462 233.403 177.163 233.309 178.899C233.309 179.142 233.309 179.379 233.309 179.613L237.83 186.629C237.83 186.629 229.743 200.739 241.396 207.684C241.396 207.684 239.313 220.767 241.396 220.624C243.478 220.482 248.264 217.826 243.471 220.489C238.679 223.151 239.042 223.508 239.663 224.129L240.283 224.75L290.633 233.208C290.633 233.208 292.102 223.436 292.266 221.695C292.43 219.953 291.36 224.214 292.423 219.953C293.486 215.692 295.083 217.291 293.486 215.671C291.888 214.051 303.827 194.259 298.927 186.607L306.772 178.935C306.772 171.569 294.955 165.602 287.602 165.602H286.653L276.569 153.411Z" fill="#E6E6E6"/>
<path d="M233.33 473.341H226.07L222.611 445.298L233.33 445.305V473.341Z" fill="#A0616A"/>
<path d="M211.408 484.06C211.412 484.876 211.737 485.657 212.312 486.234C212.887 486.811 213.667 487.138 214.482 487.144H228.153L228.574 486.266L230.507 482.269L231.255 486.266L231.427 487.144H236.583L236.511 486.259L235.135 469.75L233.331 469.643L225.593 469.179L223.682 469.064V473.996C222.205 475.538 210.83 481.369 211.408 484.06Z" fill="#2F2E41"/>
<path d="M341.277 454.299L335.165 458.231L317.107 436.526L326.122 430.724L341.277 454.299Z" fill="#A0616A"/>
<path d="M328.639 475.189C328.858 475.532 329.143 475.828 329.477 476.06C329.811 476.293 330.188 476.457 330.585 476.543C330.983 476.629 331.394 476.636 331.794 476.563C332.194 476.49 332.576 476.338 332.918 476.117L344.421 468.715L344.3 467.745L343.765 463.341L346.553 466.289L347.167 466.938L351.51 464.147L350.968 463.434L340.891 450.301L339.315 451.186L332.532 455.004L330.864 455.939L333.524 460.086C333.103 462.17 326.692 473.212 328.639 475.189Z" fill="#2F2E41"/>
<path d="M375.159 488.628L150.255 488.85C150.03 488.85 149.814 488.76 149.655 488.601C149.496 488.442 149.406 488.226 149.406 488C149.406 487.775 149.496 487.559 149.655 487.4C149.814 487.24 150.03 487.151 150.255 487.151L375.159 486.93C375.385 486.93 375.6 487.019 375.76 487.178C375.919 487.338 376.008 487.554 376.008 487.779C376.008 488.004 375.919 488.22 375.76 488.38C375.6 488.539 375.385 488.628 375.159 488.628Z" fill="#CACACA"/>
<path d="M294.771 245.992C294.771 245.992 260.346 264.214 242.139 251.781C242.139 251.781 238.153 271.087 236.562 272.686C234.972 274.285 232.419 274.977 234.223 276.762C236.027 278.546 237.033 280.951 233.603 284.006C230.172 287.061 226.756 286.09 230.037 289.238C233.317 292.386 220.052 369.598 220.052 369.598C220.052 369.598 222.192 441.394 220.052 443.571C217.913 445.748 215.06 446.226 217.834 448.91C220.609 451.593 220.587 449.516 220.587 453.192V456.889L221.842 460.572H239.144C239.144 460.572 243.316 455.726 239.144 451.515C234.972 447.304 240.413 446.154 241.69 442.236C242.966 438.318 245.085 442.543 242.959 438.282C240.834 434.021 239.807 434.834 239.786 432.037C239.764 429.239 271.165 319.543 271.165 319.543L274.966 380.255L320.695 446.747L334.159 436.64C334.159 436.64 324.36 422.829 326.65 420.938C328.939 419.046 319.896 416.655 322.749 414.514C325.601 412.373 318.733 410.232 321.322 407.377C323.911 404.522 317.756 397.384 314.191 397.384C310.625 397.384 305.633 385.458 305.633 385.458L313.107 291.244L294.771 245.992Z" fill="#2F2E41"/>
<path d="M258.263 114.663C258.021 114.977 256.081 114.806 253.742 114.463C249.128 113.792 248.5 114.592 245.048 117.732C240.056 122.286 242.909 150.036 240.441 156.046L239.643 156.631C241.216 156.331 242.762 155.899 244.264 155.339C245.115 152.656 245.966 149.974 246.817 147.296C247.628 149.377 248.138 151.564 248.329 153.791C249.513 153.32 250.697 152.178 255.66 150.636C258.164 148.944 276.242 147.231 278.567 146.489C284.472 126.397 274.959 118.275 258.263 114.663Z" fill="#2F2E41"/>
<path d="M264.368 145.64C273.911 145.64 281.648 137.897 281.648 128.346C281.648 118.795 273.911 111.052 264.368 111.052C254.824 111.052 247.088 118.795 247.088 128.346C247.088 137.897 254.824 145.64 264.368 145.64Z" fill="#A0616A"/>
<path d="M275.252 113.136C274.276 112.993 273.336 112.663 272.485 112.165C272.064 111.91 271.723 111.542 271.501 111.103C271.279 110.664 271.185 110.171 271.229 109.681C271.443 108.454 272.834 107.718 274.082 107.79C275.322 107.968 276.499 108.446 277.512 109.182C277.402 107.994 276.895 106.878 276.073 106.013C275.252 105.148 274.164 104.585 272.984 104.414C274.617 104.328 276.321 104.25 277.833 104.878C279.345 105.506 280.608 107.069 280.337 108.682C282.875 108.354 285.386 110.11 286.434 112.472C287.483 114.835 287.276 117.561 286.434 119.988C286.35 120.359 286.187 120.707 285.957 121.01C285.727 121.313 285.435 121.563 285.101 121.744C284.245 122.072 283.325 121.522 282.583 120.987C278.709 118.18 275.182 114.922 272.078 111.28" fill="#2F2E41"/>
<path d="M282.783 146.732C282.07 147.082 282.433 148.359 281.863 148.937C281.616 149.18 281.319 149.365 280.993 149.48C280.916 148.41 280.675 147.358 280.279 146.361C280.208 146.182 280.08 145.975 279.894 145.99C279.709 146.004 279.609 146.311 279.602 146.532C279.555 147.616 279.314 148.682 278.889 149.68H278.39C277.156 149.63 274.424 146.454 273.818 147.539C275.958 143.741 278.561 138.031 278.96 133.692C279.1 132.785 279.034 131.858 278.768 130.98C278.627 130.542 278.365 130.154 278.011 129.862C277.657 129.57 277.226 129.386 276.771 129.331C276.37 129.311 275.979 129.45 275.68 129.717C275.381 129.984 275.199 130.358 275.173 130.758C275.166 130.853 275.166 130.949 275.173 131.044L274.867 131.001C272.014 128.674 274.474 124.62 271.144 123.014C270.017 122.472 263.106 124.292 261.873 123.971C261.85 122.685 261.588 121.414 261.102 120.224C261.031 120.045 260.91 119.845 260.717 119.86C260.525 119.874 260.432 120.181 260.432 120.395C260.385 121.478 260.144 122.545 259.719 123.542C258.032 123.305 256.315 123.395 254.662 123.807C253.2 124.192 251.81 124.856 250.383 125.234C249.66 125.455 248.9 125.527 248.149 125.444C247.397 125.362 246.67 125.128 246.012 124.756C244.158 123.507 243.829 120.752 244.757 118.718C245.427 117.411 246.334 116.239 247.431 115.263C248.265 114.457 249.128 113.679 249.998 112.901L252.33 110.809C253.309 109.888 254.35 109.037 255.447 108.261C257.201 107.112 259.171 106.334 261.236 105.973C263.301 105.612 265.418 105.677 267.457 106.163C269.903 106.748 273.162 105.927 275.416 107.069C276.585 107.676 279.174 109.981 280.201 110.795C282.833 112.893 281.05 111.188 283.924 112.394C290.742 115.292 287.711 144.412 282.783 146.732Z" fill="#2F2E41"/>
<path d="M91.447 272.964C150.634 272.964 198.615 224.944 198.615 165.709C198.615 106.474 150.634 58.4551 91.447 58.4551C32.2599 58.4551 -15.7207 106.474 -15.7207 165.709C-15.7207 224.944 32.2599 272.964 91.447 272.964Z" fill="white"/>
<path d="M91.4457 274.035C31.7607 274.035 -16.7988 225.444 -16.7988 165.711C-16.7988 105.977 31.7607 57.3857 91.4457 57.3857C151.131 57.3857 199.683 105.977 199.683 165.711C199.683 225.444 151.124 274.035 91.4457 274.035ZM91.4457 59.527C32.966 59.527 -14.6593 107.162 -14.6593 165.711C-14.6593 224.259 32.9375 271.894 91.4457 271.894C149.954 271.894 197.544 224.259 197.544 165.711C197.544 107.162 149.947 59.527 91.4457 59.527Z" fill="#212CE6"/>
<path d="M76.826 221.532C74.9715 221.536 73.1417 221.107 71.4825 220.278C69.8233 219.449 68.3807 218.243 67.2695 216.757L38.0297 177.722C37.0645 176.47 36.3578 175.038 35.9508 173.51C35.5438 171.981 35.4446 170.387 35.659 168.82C35.8734 167.253 36.397 165.745 37.1995 164.382C38.002 163.02 39.0673 161.83 40.3333 160.884C41.5994 159.937 43.0409 159.252 44.5741 158.868C46.1072 158.484 47.7013 158.409 49.2636 158.648C50.8259 158.887 52.3251 159.434 53.6741 160.258C55.0231 161.082 56.1948 162.166 57.1212 163.448L76.2554 188.971L125.378 115.199C127.137 112.565 129.87 110.739 132.974 110.122C136.078 109.505 139.3 110.148 141.931 111.908C144.562 113.669 146.386 116.403 147.003 119.51C147.62 122.616 146.978 125.841 145.219 128.474L86.739 216.265C85.6799 217.851 84.2562 219.161 82.5873 220.083C80.9184 221.006 79.0528 221.515 77.1469 221.568L76.826 221.532Z" fill="#212CE6"/>
<path d="M333.773 169.603C334.072 167.551 331.925 165.54 328.978 165.11C326.032 164.681 323.401 165.997 323.103 168.049C322.804 170.1 324.951 172.112 327.898 172.541C330.844 172.97 333.475 171.654 333.773 169.603Z" fill="#E6E6E6"/>
<path d="M324.172 141.187C324.47 139.135 322.323 137.124 319.377 136.694C316.43 136.265 313.8 137.581 313.501 139.632C313.203 141.684 315.35 143.696 318.296 144.125C321.243 144.554 323.874 143.238 324.172 141.187Z" fill="#FF6584"/>
<path d="M308.915 129.54C308.929 127.656 307.881 126.12 306.573 126.111C305.265 126.101 304.194 127.62 304.18 129.504C304.166 131.389 305.214 132.924 306.522 132.934C307.83 132.944 308.901 131.424 308.915 129.54Z" fill="#E6E6E6"/>
<path d="M303.749 107.864C303.763 105.98 302.715 104.445 301.407 104.435C300.099 104.425 299.028 105.944 299.014 107.829C299 109.713 300.048 111.248 301.356 111.258C302.664 111.268 303.735 109.748 303.749 107.864Z" fill="#3F3D56"/>
<path d="M343.929 146.017C343.943 144.132 342.894 142.597 341.587 142.587C340.279 142.577 339.208 144.097 339.194 145.981C339.179 147.865 340.228 149.401 341.536 149.41C342.843 149.42 343.915 147.901 343.929 146.017Z" fill="#E6E6E6"/>
<path d="M326.978 154.479C326.992 152.595 325.943 151.06 324.636 151.05C323.328 151.04 322.257 152.56 322.242 154.444C322.228 156.328 323.277 157.863 324.584 157.873C325.892 157.883 326.964 156.364 326.978 154.479Z" fill="#FF6584"/>
<path d="M0.751923 319.262C1.05028 317.21 -1.09657 315.199 -4.0432 314.77C-6.98983 314.34 -9.62041 315.656 -9.91876 317.708C-10.2171 319.76 -8.07027 321.771 -5.12364 322.2C-2.17701 322.629 0.453566 321.314 0.751923 319.262Z" fill="#E6E6E6"/>
<path d="M35.8183 315.837C36.1167 313.785 33.9698 311.774 31.0232 311.345C28.0766 310.916 25.446 312.231 25.1476 314.283C24.8493 316.335 26.9961 318.346 29.9428 318.775C32.8894 319.204 35.52 317.889 35.8183 315.837Z" fill="#3F3D56"/>
<path d="M10.9191 295.65C10.9332 293.766 9.88464 292.231 8.57702 292.221C7.26941 292.211 6.19792 293.731 6.18379 295.615C6.16966 297.499 7.21824 299.034 8.52586 299.044C9.83347 299.054 10.9049 297.535 10.9191 295.65Z" fill="#E6E6E6"/>
<path d="M17.6894 320.573C17.7083 318.689 16.6635 317.151 15.3558 317.138C14.0481 317.125 12.9728 318.642 12.954 320.526C12.9352 322.41 13.98 323.948 15.2876 323.961C16.5953 323.974 17.6706 322.457 17.6894 320.573Z" fill="#3F3D56"/>
</g>
<defs>
<clipPath id="clip0_2162_5587">
<rect width="410" height="489" fill="white" transform="translate(-34)"/>
</clipPath>
</defs>
</svg>
