<svg width="480" height="688" viewBox="0 0 480 688" fill="none" xmlns="http://www.w3.org/2000/svg">
<g clip-path="url(#clip0_2162_5413)">
<path d="M676.617 288.026C636.06 339.899 559.531 351.778 496.209 333.71C475.5 327.649 455.521 319.327 436.633 308.894C425.658 302.933 414.945 296.394 404.452 289.426C401.826 287.676 399.288 285.986 396.732 284.174C394.982 283.007 393.231 281.802 391.481 280.559C369.811 265.31 348.989 248.583 328.518 231.951C277.414 190.433 224.91 147.637 162.122 127.784C149.187 123.705 132.453 121.797 124.488 132.756C117.53 142.359 121.766 155.795 127.683 166.037C149.467 203.843 189.009 227.714 228.586 246.07C268.163 264.426 310.086 279.334 344.491 306.137C378.895 332.94 405.126 375.631 398.124 418.69C392.059 455.796 361.767 485.943 326.549 499.082C291.33 512.221 252.051 510.383 215.44 501.857C178.83 493.331 144.075 478.432 108.743 465.6C87.4227 457.853 59.5471 452.539 45.4124 470.222C33.4745 485.199 40.3362 508.825 54.8735 521.29C69.4108 533.755 89.0856 537.921 107.859 541.677L282.727 576.594C300.607 580.157 318.908 583.886 334.487 593.375C350.066 602.864 362.634 619.416 362.188 637.65C361.741 655.621 348.587 671.5 332.43 679.457C316.274 687.414 297.711 688.63 279.76 687.773C212.491 684.551 19.6374 577.662 -26.6177 563.998C-56.375 555.244 -88.8367 542.342 -101.37 513.998C-116.94 478.712 -91.2611 436.022 -56.2087 419.906C-21.1564 403.791 19.4623 407.354 57.6567 412.781C95.8511 418.208 135.306 425.115 172.485 414.803C209.664 404.491 243.727 370.878 240.06 332.467C236.866 299.047 206.802 273.863 175.093 262.763C150.298 254.071 123.919 251.708 97.8728 247.795C90.6435 246.718 83.4405 245.51 76.3075 244.022C58.041 240.19 40.2222 234.469 23.1382 226.953C5.2262 219.072 -11.7915 209.297 -27.6242 197.795C-40.2571 188.63 -52.065 178.379 -62.9129 167.157C-64.567 165.407 -66.2037 163.656 -67.8228 161.905C-69.442 160.155 -70.8861 158.404 -72.3739 156.653C-91.7687 133.5 -106.07 105.025 -101.781 75.6481C-97.4926 46.2713 -74.6495 21.989 -47.5178 10.2768C-31.8165 3.4841 -14.8811 0.481645 2.26436 0.0439694C14.8013 -0.210584 27.3349 0.691933 39.706 2.74005C96.9538 11.8962 149.414 39.7149 198.995 69.8357C248.576 99.9566 296.774 133.036 350.626 154.491C404.478 175.946 465.778 185.067 520.418 165.643C575.057 146.219 619.929 93.2514 617.26 35.3294C653.485 66.5094 684.319 105.76 697.911 151.594C711.503 197.427 706.068 250.333 676.617 288.026Z" fill="#3F3D56"/>
<path d="M415.549 228.16C419.068 228.16 421.921 225.307 421.921 221.788C421.921 218.268 419.068 215.415 415.549 215.415C412.03 215.415 409.178 218.268 409.178 221.788C409.178 225.307 412.03 228.16 415.549 228.16Z" fill="#212CE6"/>
<path d="M99.011 238.429C99.018 241.586 98.6358 244.731 97.8732 247.795C90.644 246.718 83.4409 245.51 76.3079 244.022C58.0414 240.19 40.2226 234.47 23.1387 226.953C25.8885 218.085 31.7255 210.497 39.5907 205.565C47.4559 200.633 56.8281 198.685 66.0068 200.073C75.1854 201.461 83.5625 206.095 89.6179 213.132C95.6733 220.169 99.0059 229.144 99.011 238.429Z" fill="#FF6584"/>
<path d="M237.005 615.039C239.059 615.039 240.724 613.374 240.724 611.319C240.724 609.264 239.059 607.599 237.005 607.599C234.951 607.599 233.285 609.264 233.285 611.319C233.285 613.374 234.951 615.039 237.005 615.039Z" fill="#F0F0F0"/>
<path d="M290.393 666.686C292.448 666.686 294.113 665.02 294.113 662.965C294.113 660.911 292.448 659.245 290.393 659.245C288.339 659.245 286.674 660.911 286.674 662.965C286.674 665.02 288.339 666.686 290.393 666.686Z" fill="#F0F0F0"/>
<path d="M143.356 450.474C145.411 450.474 147.076 448.808 147.076 446.753C147.076 444.699 145.411 443.033 143.356 443.033C141.302 443.033 139.637 444.699 139.637 446.753C139.637 448.808 141.302 450.474 143.356 450.474Z" fill="#F0F0F0"/>
<path d="M124.977 81.0752C127.032 81.0752 128.697 79.4096 128.697 77.355C128.697 75.3004 127.032 73.6348 124.977 73.6348C122.923 73.6348 121.258 75.3004 121.258 77.355C121.258 79.4096 122.923 81.0752 124.977 81.0752Z" fill="#F0F0F0"/>
<path d="M349.907 372.567C351.961 372.567 353.627 370.902 353.627 368.847C353.627 366.793 351.961 365.127 349.907 365.127C347.853 365.127 346.188 366.793 346.188 368.847C346.188 370.902 347.853 372.567 349.907 372.567Z" fill="#F0F0F0"/>
<path d="M377.915 437.343C379.969 437.343 381.635 435.677 381.635 433.623C381.635 431.568 379.969 429.902 377.915 429.902C375.861 429.902 374.195 431.568 374.195 433.623C374.195 435.677 375.861 437.343 377.915 437.343Z" fill="#F0F0F0"/>
<path d="M42.4721 89.2685C42.4981 108.061 38.0584 126.591 29.519 143.33C28.3899 145.536 27.1997 147.707 25.9306 149.834C13.4205 170.954 -5.29121 187.706 -27.6588 197.812C-40.2917 188.648 -52.0995 178.396 -62.9474 167.175C-64.6016 165.424 -66.2383 163.673 -67.8574 161.923C-69.4765 160.172 -70.9206 158.421 -72.4085 156.671C-91.7683 133.5 -106.069 105.025 -101.781 75.6481C-97.4922 46.2713 -74.6491 21.989 -47.5174 10.2768C-31.8161 3.48408 -14.8807 0.481621 2.26478 0.0439453C15.664 11.8851 26.2238 26.5933 33.1599 43.0762C34.0351 45.1508 34.8403 47.2517 35.6017 49.3788C40.1585 62.1839 42.4824 75.6766 42.4721 89.2685Z" fill="#212CE6"/>
<path d="M96.7338 95.3959C96.7338 113.63 78.9319 130.541 46.6015 143.033C40.1337 145.536 33.2107 147.803 25.9289 149.834C-1.32523 157.432 -33.7607 161.643 -67.859 161.914C-69.3994 160.163 -70.9223 158.412 -72.4102 156.662H-71.3074C-34.2771 156.662 0.854042 151.97 29.5173 143.321C34.7686 141.72 39.8886 139.986 44.711 138.122C74.4683 126.646 91.4825 111.065 91.4825 95.3872C91.4825 79.7096 74.4333 64.1371 44.711 52.6525C41.7937 51.5146 38.7654 50.4291 35.6263 49.3962C34.9087 47.2516 34.0334 45.1508 33.1582 43.0762C37.826 44.5293 42.2984 46.0815 46.5753 47.733C78.9319 60.2243 96.7338 77.1449 96.7338 95.3959Z" fill="#E4E4E4"/>
<path d="M12.0751 53.9385C14.1294 53.9385 15.7948 52.2729 15.7948 50.2183C15.7948 48.1637 14.1294 46.498 12.0751 46.498C10.0208 46.498 8.35547 48.1637 8.35547 50.2183C8.35547 52.2729 10.0208 53.9385 12.0751 53.9385Z" fill="#F0F0F0"/>
<path d="M-28.1849 124.055C-8.19762 124.055 8.00525 107.849 8.00525 87.8589C8.00525 67.8685 -8.19762 51.6631 -28.1849 51.6631C-48.1721 51.6631 -64.375 67.8685 -64.375 87.8589C-64.375 107.849 -48.1721 124.055 -28.1849 124.055Z" fill="#F0F0F0"/>
<path opacity="0.3" d="M640.128 279.43C632.006 281.828 614.1 283.596 594.407 284.682C574.715 285.767 553.132 286.231 531.812 286.686L419.863 289.111C414.735 289.222 409.588 289.327 404.424 289.426C401.799 287.676 399.261 285.986 396.705 284.174C401.282 284.174 405.86 284.174 410.402 284.087C429.806 283.701 446.233 282.187 464.946 281.461C493.74 280.349 524.828 281.224 554.839 281.671C584.85 282.117 619.045 282.012 640.128 279.43Z" fill="#F0F0F0"/>
<path opacity="0.3" d="M67.3634 555.366L-51.5957 456.25L63.9764 559.331C64.1994 559.71 64.5094 560.029 64.8808 560.263C65.2521 560.497 65.674 560.639 66.1113 560.678C66.5487 560.716 66.9888 560.649 67.3951 560.483C67.8014 560.317 68.1621 560.056 68.4473 559.722C68.7325 559.388 68.9338 558.991 69.0345 558.564C69.1352 558.136 69.1325 557.691 69.0265 557.265C68.9204 556.839 68.7142 556.444 68.425 556.114C68.1357 555.784 67.7718 555.527 67.3634 555.366Z" fill="#F0F0F0"/>
<path d="M289.614 607.537H305L312.326 548.162H289.605L289.614 607.537Z" fill="#FFB6B6"/>
<path d="M285.686 602.513H290.062L306.98 595.633L316.047 602.513C321.17 602.513 326.083 604.548 329.705 608.172C333.328 611.795 335.363 616.708 335.363 621.832V622.462H285.686V602.513Z" fill="#2F2E41"/>
<path d="M174.34 607.537H158.945L151.619 548.162H174.34V607.537Z" fill="#FFB6B6"/>
<path d="M178.26 622.462H128.627V621.832C128.629 616.708 130.666 611.794 134.29 608.171C137.914 604.548 142.828 602.513 147.952 602.513L157.019 595.633L173.928 602.513H178.304L178.26 622.462Z" fill="#2F2E41"/>
<path d="M229.496 152.46L213.908 164.33L172.502 175.298C172.502 175.298 187.38 279.465 180.379 286.468C173.377 293.47 179.696 293.654 178.287 302.749C176.878 311.844 171.285 335.864 171.285 335.864H294.795C294.795 335.864 295.793 320.939 289.702 317.709C283.61 314.479 295.321 299.388 290.341 296.867C285.361 294.346 292.362 272.462 292.362 272.462L307.539 200.814L267.182 169.232L261.056 154.438L229.496 152.46Z" fill="#212CE6"/>
<path d="M248.944 245.51C251.922 245.51 254.335 243.096 254.335 240.118C254.335 237.14 251.922 234.726 248.944 234.726C245.966 234.726 243.553 237.14 243.553 240.118C243.553 243.096 245.966 245.51 248.944 245.51Z" fill="#F2F2F2"/>
<path d="M171.233 335.828L166.131 467.07C166.131 467.07 144.137 563.997 147.953 566.544C151.768 569.092 153.396 584.288 153.396 584.288L175.049 586.835C175.049 586.835 175.049 576.637 180.152 572.829C185.254 569.022 232.376 389.356 232.376 389.356L278.36 563.052C278.36 563.052 279.515 572.829 283.331 572.829C287.147 572.829 288.433 586.835 288.433 586.835H310.086V572.829C310.086 572.829 319.818 569.739 315.994 559.55C312.169 549.361 294.796 335.837 294.796 335.837L171.233 335.828Z" fill="#2F2E41"/>
<path d="M245.679 144.643C260.103 144.643 271.795 132.949 271.795 118.523C271.795 104.097 260.103 92.4023 245.679 92.4023C231.255 92.4023 219.562 104.097 219.562 118.523C219.562 132.949 231.255 144.643 245.679 144.643Z" fill="#FFB6B6"/>
<path opacity="0.1" d="M290.342 235.811L295.436 239.637L297.982 221.797L290.342 235.811Z" fill="black"/>
<path d="M174.944 175.193C174.944 175.193 168.582 173.915 164.757 185.382C160.932 196.849 146.938 240.17 146.938 247.821C146.938 255.471 234.205 289.19 234.205 289.19L225.112 257.336L185.141 236.327L174.944 175.193Z" fill="#212CE6"/>
<path d="M238.24 284.472C246.457 284.472 253.119 277.809 253.119 269.591C253.119 261.372 246.457 254.71 238.24 254.71C230.023 254.71 223.361 261.372 223.361 269.591C223.361 277.809 230.023 284.472 238.24 284.472Z" fill="#FFB6B6"/>
<path opacity="0.1" d="M183.977 220.571L185.141 236.354L222.101 255.752L189.228 233.702L183.977 220.571Z" fill="black"/>
<path d="M272.828 222.821H272.347V209.691C272.347 207.675 271.547 205.741 270.122 204.315C268.698 202.889 266.766 202.086 264.75 202.084H236.918C234.901 202.084 232.966 202.885 231.54 204.312C230.114 205.739 229.312 207.673 229.312 209.691V281.758C229.315 283.774 230.117 285.707 231.543 287.132C232.969 288.556 234.902 289.357 236.918 289.357H264.741C266.757 289.357 268.69 288.556 270.116 287.132C271.542 285.707 272.345 283.774 272.347 281.758V232.17H272.828V222.821Z" fill="#F0F0F0"/>
<path d="M307.539 200.779C307.539 200.779 311.364 203.327 313.911 214.785C316.457 226.243 333.016 269.573 326.645 279.762C320.273 289.951 318.4 300.832 296.739 285.548L266.771 258.106L288.433 237.719L297.351 244.092L307.539 200.779Z" fill="#212CE6"/>
<path d="M251.174 234.2C254.693 234.2 257.546 231.347 257.546 227.828C257.546 224.308 254.693 221.455 251.174 221.455C247.655 221.455 244.803 224.308 244.803 227.828C244.803 231.347 247.655 234.2 251.174 234.2Z" fill="#212CE6"/>
<path d="M269.607 256.67C277.824 256.67 284.486 250.008 284.486 241.789C284.486 233.571 277.824 226.908 269.607 226.908C261.39 226.908 254.729 233.571 254.729 241.789C254.729 250.008 261.39 256.67 269.607 256.67Z" fill="#FFB6B6"/>
<path opacity="0.1" d="M183.267 268.199L225.987 287.098L182.086 278.511L183.267 268.199Z" fill="black"/>
<path d="M219.326 123.722L215.746 110.076C214.81 106.513 213.864 102.88 214.075 99.2038C214.285 95.5273 215.825 91.737 218.941 89.7412C222.056 87.7454 226.765 88.2268 228.752 91.3168C229.137 86.3798 233.636 82.5633 238.379 81.224C243.123 79.8847 248.217 80.41 253.162 80.6375C258.107 80.8651 263.34 80.7076 267.62 78.1953C267.937 79.168 267.911 80.2199 267.546 81.1756C267.181 82.1314 266.5 82.9332 265.616 83.4474C266.679 83.7307 267.809 83.6034 268.782 83.0908C269.755 82.5782 270.5 81.718 270.867 80.6813C270.901 83.5432 269.843 86.3104 267.909 88.4194C269.755 87.5065 271.873 87.3118 273.855 87.8731C275.836 88.4343 277.538 89.7115 278.63 91.4569C280.81 95.2384 279.584 99.9916 278.315 104.167L271.76 125.596C270.771 122.339 270.578 118.899 270.053 115.538C269.528 112.176 268.574 108.736 266.351 106.154C264.128 103.572 260.365 102.075 257.205 103.362C255.455 104.079 254.089 105.533 252.488 106.583C249.206 108.736 245.04 109.043 241.11 108.605C237.18 108.167 233.417 107.056 229.522 106.618C227.08 106.338 224.358 106.408 222.52 108.036C221.253 109.351 220.417 111.022 220.122 112.824C219.256 116.415 218.914 120.112 219.107 123.801" fill="#2F2E41"/>
</g>
<defs>
<clipPath id="clip0_2162_5413">
<rect width="811" height="688" fill="white" transform="translate(-106)"/>
</clipPath>
</defs>
</svg>
