<svg width="20" height="20" viewBox="0 0 20 20" fill="none" xmlns="http://www.w3.org/2000/svg">
<path fill-rule="evenodd" clip-rule="evenodd" d="M1.5 0C0.671573 0 0 0.671573 0 1.5V18.5C0 19.3284 0.671573 20 1.5 20H18.5C19.3284 20 20 19.3284 20 18.5V1.5C20 0.671573 19.3284 0 18.5 0H1.5ZM8.0555 7.08986C8.63108 6.70527 9.30777 6.5 10 6.5C10.9283 6.5 11.8185 6.86875 12.4749 7.52513C13.1313 8.1815 13.5 9.07174 13.5 10C13.5 10.6922 13.2947 11.3689 12.9101 11.9445C12.5256 12.5201 11.9789 12.9687 11.3394 13.2336C10.6999 13.4985 9.99612 13.5678 9.31718 13.4327C8.63825 13.2977 8.01461 12.9644 7.52513 12.4749C7.03564 11.9854 6.7023 11.3617 6.56725 10.6828C6.4322 10.0039 6.50151 9.30015 6.76642 8.66061C7.03133 8.02107 7.47993 7.47444 8.0555 7.08986ZM8.8333 11.7461C9.17865 11.9768 9.58466 12.1 10 12.1C10.557 12.1 11.0911 11.8788 11.4849 11.4849C11.8788 11.0911 12.1 10.557 12.1 10C12.1 9.58466 11.9768 9.17865 11.7461 8.8333C11.5153 8.48796 11.1874 8.2188 10.8036 8.05985C10.4199 7.90091 9.99767 7.85932 9.59031 7.94035C9.18295 8.02138 8.80877 8.22139 8.51508 8.51508C8.22139 8.80877 8.02138 9.18295 7.94035 9.59031C7.85932 9.99767 7.90091 10.4199 8.05985 10.8036C8.2188 11.1874 8.48796 11.5153 8.8333 11.7461ZM13.1111 5.91797C13.2262 5.84105 13.3616 5.8 13.5 5.8C13.6857 5.8 13.8637 5.87375 13.995 6.00503C14.1263 6.1363 14.2 6.31435 14.2 6.5C14.2 6.63845 14.1589 6.77378 14.082 6.8889C14.0051 7.00401 13.8958 7.09373 13.7679 7.14672C13.64 7.1997 13.4992 7.21356 13.3634 7.18655C13.2276 7.15954 13.1029 7.09287 13.005 6.99497C12.9071 6.89708 12.8405 6.77235 12.8134 6.63656C12.7864 6.50078 12.8003 6.36003 12.8533 6.23212C12.9063 6.10421 12.996 5.99489 13.1111 5.91797ZM16.622 5.618C16.8328 6.17796 16.9464 6.7698 16.958 7.368C17 8.054 17 8.278 17 10C17 11.0516 16.9843 11.5393 16.9721 11.9191C16.9644 12.1612 16.958 12.3595 16.958 12.632C16.9464 13.2302 16.8328 13.822 16.622 14.382C16.4265 14.8916 16.1261 15.3543 15.7402 15.7402C15.3543 16.1261 14.8916 16.4265 14.382 16.622C13.822 16.8328 13.2302 16.9464 12.632 16.958C11.953 17 11.729 17 10 17C8.94334 17 8.45663 16.9843 8.0781 16.9721C7.83725 16.9644 7.6402 16.958 7.368 16.958C6.7698 16.9464 6.17796 16.8328 5.618 16.622C5.10845 16.4265 4.64569 16.1261 4.25979 15.7402C3.87388 15.3543 3.57345 14.8916 3.378 14.382C3.16723 13.822 3.0536 13.2302 3.042 12.632C3 11.946 3 11.722 3 10C3 8.278 3 8.054 3.042 7.368C3.0536 6.7698 3.16723 6.17796 3.378 5.618C3.57345 5.10845 3.87388 4.64569 4.25979 4.25979C4.64569 3.87388 5.10845 3.57345 5.618 3.378C6.17796 3.16723 6.7698 3.0536 7.368 3.042C8.047 3 8.271 3 10 3C11.729 3 11.953 3 12.632 3.042C13.2302 3.0536 13.822 3.16723 14.382 3.378C14.8916 3.57345 15.3543 3.87388 15.7402 4.25979C16.1261 4.64569 16.4265 5.10845 16.622 5.618ZM15.313 13.871C15.463 13.4527 15.5457 13.0132 15.558 12.569H15.6C15.6 12.3093 15.6052 12.1197 15.6116 11.8869C15.6218 11.5174 15.635 11.0394 15.635 10C15.635 8.96885 15.622 8.50053 15.6119 8.13402C15.6054 7.89843 15.6 7.7049 15.6 7.431C15.5814 6.97221 15.4844 6.51999 15.313 6.094C15.1941 5.76249 15 5.463 14.746 5.219C14.5034 4.96667 14.2066 4.77279 13.878 4.652C13.4561 4.49656 13.0115 4.41143 12.562 4.4H10C8.299 4.4 8.096 4.4 7.438 4.47C6.99069 4.48066 6.54829 4.56583 6.129 4.722C5.79749 4.84094 5.498 5.03501 5.254 5.289C5.00167 5.53163 4.80779 5.82844 4.687 6.157C4.53219 6.57667 4.44707 7.01885 4.435 7.466V10.035V12.604C4.4463 13.049 4.53146 13.489 4.687 13.906C4.80594 14.2375 5.00001 14.537 5.254 14.781C5.49947 15.0349 5.79836 15.231 6.129 15.355C6.54953 15.5058 6.99141 15.5885 7.438 15.6H9.993C11.0417 15.6 11.521 15.5867 11.8886 15.5765C12.1173 15.5701 12.3027 15.565 12.555 15.565C13.0023 15.5543 13.4447 15.4692 13.864 15.313C14.1955 15.1941 14.495 15 14.739 14.746C14.9929 14.5005 15.189 14.2016 15.313 13.871Z" fill="#582AFB"/>
</svg>
