<svg width="20" height="20" viewBox="0 0 20 20" fill="none" xmlns="http://www.w3.org/2000/svg">
<path d="M18.41 0.000139831H1.47C1.27958 -0.00250479 1.0905 0.0323873 0.913566 0.102824C0.73663 0.17326 0.575303 0.27786 0.438797 0.410652C0.302292 0.543443 0.193281 0.701824 0.117992 0.876749C0.0427024 1.05167 0.00260839 1.23972 0 1.43014V18.5701C0.00260839 18.7606 0.0427024 18.9486 0.117992 19.1235C0.193281 19.2985 0.302292 19.4568 0.438797 19.5896C0.575303 19.7224 0.73663 19.827 0.913566 19.8975C1.0905 19.9679 1.27958 20.0028 1.47 20.0001H18.41C18.6004 20.0028 18.7895 19.9679 18.9664 19.8975C19.1434 19.827 19.3047 19.7224 19.4412 19.5896C19.5777 19.4568 19.6867 19.2985 19.762 19.1235C19.8373 18.9486 19.8774 18.7606 19.88 18.5701V1.43014C19.8774 1.23972 19.8373 1.05167 19.762 0.876749C19.6867 0.701824 19.5777 0.543443 19.4412 0.410652C19.3047 0.27786 19.1434 0.17326 18.9664 0.102824C18.7895 0.0323873 18.6004 -0.00250479 18.41 0.000139831ZM6.03 16.7401H3.03V7.74014H6.03V16.7401ZM4.53 6.48014C4.11626 6.48014 3.71947 6.31578 3.42691 6.02323C3.13436 5.73067 2.97 5.33388 2.97 4.92014C2.97 4.5064 3.13436 4.10961 3.42691 3.81705C3.71947 3.5245 4.11626 3.36014 4.53 3.36014C4.7497 3.33522 4.97218 3.35699 5.18288 3.42402C5.39357 3.49105 5.58774 3.60183 5.75266 3.7491C5.91757 3.89637 6.04953 4.07682 6.13987 4.27862C6.23022 4.48043 6.27692 4.69904 6.27692 4.92014C6.27692 5.14124 6.23022 5.35985 6.13987 5.56166C6.04953 5.76346 5.91757 5.94391 5.75266 6.09118C5.58774 6.23845 5.39357 6.34923 5.18288 6.41626C4.97218 6.48329 4.7497 6.50505 4.53 6.48014ZM16.85 16.7401H13.85V11.9101C13.85 10.7001 13.42 9.91014 12.33 9.91014C11.9927 9.91261 11.6642 10.0184 11.3888 10.2133C11.1135 10.4082 10.9045 10.6828 10.79 11.0001C10.7117 11.2352 10.6778 11.4827 10.69 11.7301V16.7301H7.69C7.69 16.7301 7.69 8.55014 7.69 7.73014H10.69V9.00014C10.9625 8.52725 11.3589 8.13766 11.8364 7.87334C12.314 7.60902 12.8546 7.47999 13.4 7.50014C15.4 7.50014 16.85 8.79014 16.85 11.5601V16.7401Z" fill="#582AFB"/>
</svg>
