<svg width="20" height="20" viewBox="0 0 20 20" fill="none" xmlns="http://www.w3.org/2000/svg">
<path fill-rule="evenodd" clip-rule="evenodd" d="M1.5 0C0.671573 0 0 0.671573 0 1.5V18.5C0 19.3284 0.671573 20 1.5 20H18.5C19.3284 20 20 19.3284 20 18.5V1.5C20 0.671573 19.3284 0 18.5 0H1.5ZM15.348 6.81342C15.9174 6.74458 16.4738 6.59369 17 6.36542C16.623 6.93762 16.1493 7.43979 15.6 7.84942V8.22042C15.6084 9.29823 15.402 10.3669 14.9928 11.3641C14.5836 12.3612 13.9798 13.2668 13.2166 14.028C12.4535 14.7891 11.5464 15.3906 10.5482 15.7973C9.54999 16.2039 8.48078 16.4076 7.403 16.3964C5.84117 16.3983 4.3121 15.9486 3 15.1014C3.23221 15.1302 3.46601 15.1442 3.7 15.1434C4.98512 15.1398 6.23204 14.7061 7.242 13.9114C6.6439 13.8999 6.06427 13.7022 5.58375 13.3459C5.10324 12.9896 4.74574 12.4924 4.561 11.9234C4.7391 11.9539 4.91932 11.9703 5.1 11.9724C5.36101 11.9695 5.62028 11.9294 5.87 11.8534C5.22128 11.7244 4.63704 11.3752 4.21612 10.865C3.7952 10.3548 3.56342 9.71484 3.56 9.05342V9.01842C3.95892 9.24053 4.40558 9.363 4.862 9.37542C4.46931 9.11342 4.14751 8.75838 3.92523 8.34192C3.70295 7.92545 3.5871 7.46049 3.588 6.98842C3.58766 6.4801 3.7204 5.98054 3.973 5.53942C4.69319 6.42681 5.59201 7.15276 6.61106 7.67012C7.63011 8.18749 8.7466 8.48469 9.888 8.54242C9.7391 7.92459 9.79948 7.27482 10.0597 6.69501C10.3199 6.11519 10.7651 5.63813 11.3257 5.33865C11.8862 5.03917 12.5303 4.9342 13.1569 5.04022C13.7835 5.14623 14.3572 5.45722 14.788 5.92442C15.4325 5.79723 16.0505 5.56046 16.615 5.22442C16.3989 5.88997 15.9487 6.45454 15.348 6.81342Z" fill="#582AFB"/>
</svg>
